<svg xmlns="http://www.w3.org/2000/svg" viewBox="0 0 64 64" role="img" aria-label="EURC">
  <circle cx="32" cy="32" r="30" fill="#1D9BF0"/>
  <circle cx="32" cy="32" r="23" fill="none" stroke="#fff" stroke-width="4"/>
  <path fill="#fff" d="M43.7 43.8c-2.6 2.2-6.1 3.5-10 3.5-7.2 0-13-4.4-15-11h-4.3v-4h3.5a19 19 0 0 1 0-1.4c0-.5 0-.9.1-1.4h-3.6v-4h4.5c2.1-6.4 7.9-10.8 15-10.8 3.7 0 7 1.1 9.6 3.2l-2.9 5.1a10.6 10.6 0 0 0-6.8-2.4c-3.8 0-6.9 1.9-8.5 5h12.6v4H24.2l-.1 1.3c0 .5 0 1 .1 1.5h13.7v4H25.4c1.6 3.2 4.7 5.1 8.6 5.1 2.7 0 5-.8 6.9-2.5l2.8 4.8z"/>
</svg>
