<svg xmlns="http://www.w3.org/2000/svg" viewBox="0 0 64 64" role="img" aria-label="USDC">
  <circle cx="32" cy="32" r="30" fill="#2775CA"/>
  <circle cx="32" cy="32" r="23" fill="none" stroke="#fff" stroke-width="4"/>
  <path fill="#fff" d="M34.5 47v-5.2c5.1-.8 8.2-3.8 8.2-8.1 0-4.8-3.2-6.9-9.5-8.1-4.2-.8-5.5-1.6-5.5-3.3 0-1.6 1.4-2.8 4.2-2.8 2.7 0 5.1.8 7.3 2.4l2.4-4.7c-1.9-1.4-4.3-2.3-7.1-2.6V10h-4.8v4.7c-5 .8-8.1 3.8-8.1 7.9 0 5.1 3.4 7 9.7 8.2 4 .7 5.2 1.7 5.2 3.4 0 1.9-1.8 3-4.7 3-3.6 0-6.5-1.1-8.8-3l-2.5 4.7c2.2 1.8 5.3 2.9 9.2 3.1v5h4.8z"/>
</svg>
