<svg xmlns="http://www.w3.org/2000/svg" viewBox="0 0 64 64" role="img" aria-label="XLM">
  <circle cx="32" cy="32" r="30" fill="#111827"/>
  <path fill="#fff" d="M47.9 17.3 16.8 33.2v-5.4l31.1-15.9v5.4zM47.9 29.6 16.8 45.5v-5.4l31.1-15.9v5.4z"/>
  <path fill="#fff" d="M23.2 48.6a21.6 21.6 0 0 1-8.8-17.4c0-11.9 9.7-21.6 21.6-21.6 3.3 0 6.4.7 9.2 2.1l-5.4 2.8a16.2 16.2 0 0 0-3.8-.4c-9.4 0-17.1 7.7-17.1 17.1 0 4.2 1.5 8 4.1 11l.2 6.4zM28.2 52.3l5.4-2.8c.8.1 1.6.2 2.4.2 9.4 0 17.1-7.7 17.1-17.1 0-3.2-.9-6.1-2.4-8.6l4-2a21.5 21.5 0 0 1-18.7 32.2c-2.7 0-5.3-.5-7.8-1.9z"/>
</svg>
